# xmcd
#
# Track frame offsets:
#	150
#	14825
#	41580
#	59711
#	72523
#	87519
#	108042
#	123181
#	135742
#	148097
#	168996
#	190922
#	208105
#	222635
#	237749
#	252634
#	269789
#	287595
#
# Disc length: 4037 seconds
#
# Revision: 0
# Processed by: cddbd v1.5.1PL2 Copyright (c) Steve Scherf et al.
# Submitted via: EasyCDDAExtractor 4.5.0.1
#
DISCID=320fc312
DTITLE=Camilo Sesto - Vivir sin ti
DYEAR=2005
DGENRE=Ballad
TTITLE0=Amor de mujer
TTITLE1=Amor mío qué me has hecho?
TTITLE2=Amor amar
TTITLE3=Devuélme mi libertad
TTITLE4=Hablemos de algo
TTITLE5=Has nacido lubre
TTITLE6=Amor mío hasta el final
TTITLE7=Más que nunca
TTITLE8=Miénteme
TTITLE9=No sabes cuánto te quiero
TTITLE10=¿Quién?
TTITLE11=Tal para cual
TTITLE12=Te amo
TTITLE13=Tres veces no
TTITLE14=Ven o voy
TTITLE15=Vivir asi es morir de amor
TTITLE16=Vivir sin ti
TTITLE17=Volver, volver
EXTD=
EXTT0=
EXTT1=
EXTT2=
EXTT3=
EXTT4=
EXTT5=
EXTT6=
EXTT7=
EXTT8=
EXTT9=
EXTT10=
EXTT11=
EXTT12=
EXTT13=
EXTT14=
EXTT15=
EXTT16=
EXTT17=
PLAYORDER=
